<svg xmlns="http://www.w3.org/2000/svg" viewBox="0 0 402.26 85"><defs><style>.cls-1{fill:#fff;}</style></defs><g id="Lockup"><path class="cls-1" d="M111.82,26.44V12h2.48V26.44Z"/><path class="cls-1" d="M123.19,26.44v-6c0-1.64-.65-2.45-2-2.45s-2.14.8-2.14,2.41v6.08h-2.41V15.9h2.41v1a3.44,3.44,0,0,1,2.78-1.23,3.64,3.64,0,0,1,2.69,1,4.44,4.44,0,0,1,1,3.28v6.47Z"/><path class="cls-1" d="M130.81,26.69c-1.63,0-2.45-.9-2.45-2.7V18h-1.57V15.9h1.57V12.71l2.41-1.16V15.9h2.43V18h-2.43v5.5c0,.68.3,1,.89,1a3.35,3.35,0,0,0,1.65-.47L133,26.21A4.69,4.69,0,0,1,130.81,26.69Z"/><path class="cls-1" d="M139.13,26.69a4.49,4.49,0,0,1-3.55-1.48,5.84,5.84,0,0,1-1.31-4.05,5.82,5.82,0,0,1,1.32-4,5,5,0,0,1,6.85-.22,4.94,4.94,0,0,1,1.29,3.7,12.82,12.82,0,0,1-.08,1.48h-7a2.58,2.58,0,0,0,.77,1.79,2.35,2.35,0,0,0,1.7.68,2.64,2.64,0,0,0,2.23-1.09L142.89,25A4.65,4.65,0,0,1,139.13,26.69Zm-2.45-6.6h4.66a2.5,2.5,0,0,0-.7-1.72,2.12,2.12,0,0,0-1.51-.59,2.55,2.55,0,0,0-1.7.57A2.44,2.44,0,0,0,136.68,20.09Z"/><path class="cls-1" d="M145.4,26.44V15.9h2.41V17A2.2,2.2,0,0,1,150,15.66a2.91,2.91,0,0,1,2,.72l-.35,2.2a3,3,0,0,0-1.79-.55,1.88,1.88,0,0,0-1.4.58,2.64,2.64,0,0,0-.58,1.93v5.9Z"/><path class="cls-1" d="M159.64,26.44v-6c0-1.64-.65-2.45-1.95-2.45s-2.15.8-2.15,2.41v6.08h-2.41V15.9h2.41v1a3.45,3.45,0,0,1,2.78-1.23,3.68,3.68,0,0,1,2.7,1,4.48,4.48,0,0,1,1,3.28v6.47Z"/><path class="cls-1" d="M170.23,26.44V25.6a3.75,3.75,0,0,1-2.81,1.09,4.08,4.08,0,0,1-2.75-.92,3.22,3.22,0,0,1-1.06-2.59,3,3,0,0,1,1.21-2.6,4.76,4.76,0,0,1,2.91-.88,5.06,5.06,0,0,1,2.5.55V19.7a1.88,1.88,0,0,0-.51-1.47,2.26,2.26,0,0,0-1.55-.45,5.37,5.37,0,0,0-3.14,1l-.74-2a7.18,7.18,0,0,1,4.12-1.15,7.07,7.07,0,0,1,1.46.13,4.51,4.51,0,0,1,1.3.53,2.61,2.61,0,0,1,1,1.23,5.42,5.42,0,0,1,.37,2.11v6.78Zm-2.35-1.88a3.12,3.12,0,0,0,2.35-1V22.19a4.85,4.85,0,0,0-2.11-.43,3.11,3.11,0,0,0-1.56.35,1.15,1.15,0,0,0-.6,1.07,1.18,1.18,0,0,0,.49,1A2.34,2.34,0,0,0,167.88,24.56Z"/><path class="cls-1" d="M177.76,26.69c-1.63,0-2.45-.9-2.45-2.7V18h-1.57V15.9h1.57V12.71l2.41-1.16V15.9h2.44V18h-2.44v5.5c0,.68.3,1,.89,1a3.3,3.3,0,0,0,1.65-.47L180,26.21A4.66,4.66,0,0,1,177.76,26.69Z"/><path class="cls-1" d="M183.94,14a1.37,1.37,0,0,1-1,.42,1.39,1.39,0,0,1-1-.42,1.36,1.36,0,0,1-.43-1,1.32,1.32,0,0,1,.43-1,1.39,1.39,0,0,1,1-.42,1.37,1.37,0,0,1,1,.42,1.38,1.38,0,0,1,.41,1A1.42,1.42,0,0,1,183.94,14Zm-2.23,12.4V15.9h2.41V26.44Z"/><path class="cls-1" d="M190.69,26.69a4.47,4.47,0,0,1-3.53-1.47,5.84,5.84,0,0,1-1.3-4,5.88,5.88,0,0,1,1.3-4.05,5,5,0,0,1,7.06,0,5.84,5.84,0,0,1,1.31,4.05,5.84,5.84,0,0,1-1.3,4A4.48,4.48,0,0,1,190.69,26.69Zm0-2.31a2.11,2.11,0,0,0,1.78-.85,3.77,3.77,0,0,0,.65-2.35,3.9,3.9,0,0,0-.65-2.37,2.24,2.24,0,0,0-3.54,0,3.84,3.84,0,0,0-.66,2.36,3.8,3.8,0,0,0,.65,2.34A2.11,2.11,0,0,0,190.69,24.38Z"/><path class="cls-1" d="M203.8,26.44v-6c0-1.64-.65-2.45-2-2.45s-2.15.8-2.15,2.41v6.08h-2.41V15.9h2.41v1a3.45,3.45,0,0,1,2.78-1.23,3.68,3.68,0,0,1,2.7,1,4.48,4.48,0,0,1,1,3.28v6.47Z"/><path class="cls-1" d="M214.39,26.44V25.6a3.75,3.75,0,0,1-2.81,1.09,4.08,4.08,0,0,1-2.75-.92,3.22,3.22,0,0,1-1.06-2.59,3,3,0,0,1,1.21-2.6,4.76,4.76,0,0,1,2.91-.88,5.06,5.06,0,0,1,2.5.55V19.7a1.88,1.88,0,0,0-.51-1.47,2.26,2.26,0,0,0-1.55-.45,5.39,5.39,0,0,0-3.14,1l-.74-2a7.2,7.2,0,0,1,4.12-1.15,7.07,7.07,0,0,1,1.46.13,4.51,4.51,0,0,1,1.3.53,2.61,2.61,0,0,1,1,1.23,5.25,5.25,0,0,1,.37,2.11v6.78ZM212,24.56a3.12,3.12,0,0,0,2.35-1V22.19a4.84,4.84,0,0,0-2.1-.43,3.12,3.12,0,0,0-1.57.35,1.15,1.15,0,0,0-.6,1.07,1.19,1.19,0,0,0,.5,1A2.29,2.29,0,0,0,212,24.56Z"/><path class="cls-1" d="M218.92,26.44V12.69l2.41-1.14V26.44Z"/><path class="cls-1" d="M111.72,47.06V32.63h2.48V44.69h7v2.37Z"/><path class="cls-1" d="M128.85,47.06v-.84a3.73,3.73,0,0,1-2.8,1.09,4.09,4.09,0,0,1-2.76-.92,3.25,3.25,0,0,1-1.06-2.59,3,3,0,0,1,1.21-2.6,4.79,4.79,0,0,1,2.92-.88,5,5,0,0,1,2.49.55v-.55a1.92,1.92,0,0,0-.5-1.47,2.31,2.31,0,0,0-1.56-.45,5.34,5.34,0,0,0-3.13,1l-.75-2A7.21,7.21,0,0,1,127,36.28a7,7,0,0,1,1.45.13,4.51,4.51,0,0,1,1.3.53,2.56,2.56,0,0,1,1,1.23,5.25,5.25,0,0,1,.37,2.11v6.78Zm-2.35-1.88a3.1,3.1,0,0,0,2.35-1V42.81a4.77,4.77,0,0,0-2.1-.43,3.12,3.12,0,0,0-1.57.35,1.15,1.15,0,0,0-.6,1.07,1.19,1.19,0,0,0,.5,1A2.31,2.31,0,0,0,126.5,45.18Z"/><path class="cls-1" d="M138.08,47.31a2.82,2.82,0,0,1-2.33-1.05v.8h-2.42V33.27l2.42-1.1v5.14a3,3,0,0,1,2.37-1,3.87,3.87,0,0,1,3.16,1.48,6.16,6.16,0,0,1,1.21,4,6.26,6.26,0,0,1-1.18,4.08A3.92,3.92,0,0,1,138.08,47.31ZM137.79,45a1.94,1.94,0,0,0,1.7-.86,4.12,4.12,0,0,0,.59-2.36,4,4,0,0,0-.6-2.39,2,2,0,0,0-1.69-.82,2.27,2.27,0,0,0-2,1V44A2.27,2.27,0,0,0,137.79,45Z"/><path class="cls-1" d="M148.59,47.31a4.45,4.45,0,0,1-3.52-1.47,5.84,5.84,0,0,1-1.3-4,5.88,5.88,0,0,1,1.3-4,5,5,0,0,1,7.06,0,5.89,5.89,0,0,1,1.31,4,5.84,5.84,0,0,1-1.3,4A4.5,4.5,0,0,1,148.59,47.31Zm0-2.31a2.13,2.13,0,0,0,1.79-.85A3.77,3.77,0,0,0,151,41.8a3.9,3.9,0,0,0-.65-2.37,2.11,2.11,0,0,0-1.79-.86,2.08,2.08,0,0,0-1.75.87,3.84,3.84,0,0,0-.66,2.36,3.8,3.8,0,0,0,.65,2.34A2.09,2.09,0,0,0,148.59,45Z"/><path class="cls-1" d="M161.59,47.06v-1a3.31,3.31,0,0,1-2.76,1.26,3.69,3.69,0,0,1-2.7-1,4.48,4.48,0,0,1-1-3.29V36.52h2.41v6q0,2.46,2,2.46c1.41,0,2.12-.81,2.12-2.41V36.52H164V47.06Z"/><path class="cls-1" d="M166.25,47.06V36.52h2.41v1.1a2.2,2.2,0,0,1,2.16-1.34,2.91,2.91,0,0,1,2,.72l-.35,2.2a3,3,0,0,0-1.79-.55,1.88,1.88,0,0,0-1.4.58,2.64,2.64,0,0,0-.58,1.93v5.9Z"/><path class="cls-1" d="M117.54,67.93a6.54,6.54,0,0,1-2.44-.44,4.87,4.87,0,0,1-1.8-1.16,6.94,6.94,0,0,1-1.2-1.7,8.25,8.25,0,0,1-.69-2,11.71,11.71,0,0,1,0-4.31,8,8,0,0,1,.69-2,6.76,6.76,0,0,1,1.2-1.7,5,5,0,0,1,1.8-1.17,6.54,6.54,0,0,1,2.44-.43,6.36,6.36,0,0,1,2.93.65,5,5,0,0,1,2,1.75,8.65,8.65,0,0,1,1.07,2.38,10.31,10.31,0,0,1,.35,2.68,10.2,10.2,0,0,1-.35,2.68,8.58,8.58,0,0,1-1.07,2.39,5,5,0,0,1-2,1.75A6.36,6.36,0,0,1,117.54,67.93Zm0-2.37a3.27,3.27,0,0,0,2.93-1.73,5.93,5.93,0,0,0,.63-1.62,7.35,7.35,0,0,0,.21-1.75,7.52,7.52,0,0,0-.21-1.8,5.93,5.93,0,0,0-.63-1.62,3.26,3.26,0,0,0-1.17-1.22,3.36,3.36,0,0,0-1.76-.45,3.09,3.09,0,0,0-2.21.84,4.4,4.4,0,0,0-1.23,1.92,8.05,8.05,0,0,0-.34,2.33,7.64,7.64,0,0,0,.21,1.8,6.72,6.72,0,0,0,.63,1.63,3.16,3.16,0,0,0,1.17,1.21A3.29,3.29,0,0,0,117.54,65.56Z"/><path class="cls-1" d="M125.94,67.68V57.14h2.41v1.1a2.22,2.22,0,0,1,2.17-1.34,2.91,2.91,0,0,1,1.95.72l-.35,2.2a3,3,0,0,0-1.79-.55,1.91,1.91,0,0,0-1.4.57,2.68,2.68,0,0,0-.58,1.94v5.9Z"/><path class="cls-1" d="M137.27,71.8,136,69.87a7,7,0,0,0,3-.67,1.78,1.78,0,0,0,.84-1.62V67a3.1,3.1,0,0,1-2.39,1,3.93,3.93,0,0,1-3.15-1.44,6.2,6.2,0,0,1-1.2-4.09,6.21,6.21,0,0,1,1.2-4,3.91,3.91,0,0,1,3.17-1.47,3.2,3.2,0,0,1,2.37.88v-.64h2.41v9.49a5.35,5.35,0,0,1-1.12,3.79A5.75,5.75,0,0,1,137.27,71.8Zm.58-6.18a2.23,2.23,0,0,0,2-1V60.22a2.28,2.28,0,0,0-2-1,2,2,0,0,0-1.74.82,4.87,4.87,0,0,0,0,4.74A2,2,0,0,0,137.85,65.62Z"/><path class="cls-1" d="M150.5,67.68v-.85a3.72,3.72,0,0,1-2.81,1.1,4.08,4.08,0,0,1-2.75-.92,3.22,3.22,0,0,1-1.06-2.59,3,3,0,0,1,1.2-2.6,4.81,4.81,0,0,1,2.92-.88,5.06,5.06,0,0,1,2.5.55v-.55a1.88,1.88,0,0,0-.51-1.47,2.26,2.26,0,0,0-1.55-.45,5.37,5.37,0,0,0-3.14,1l-.74-2a7.18,7.18,0,0,1,4.12-1.15,7.07,7.07,0,0,1,1.46.13,4.51,4.51,0,0,1,1.3.53,2.61,2.61,0,0,1,1,1.23,5.42,5.42,0,0,1,.37,2.11v6.78Zm-2.35-1.88a3.12,3.12,0,0,0,2.35-1V63.43a4.85,4.85,0,0,0-2.11-.43,3.11,3.11,0,0,0-1.56.35,1.15,1.15,0,0,0-.6,1.07,1.18,1.18,0,0,0,.49,1A2.34,2.34,0,0,0,148.15,65.8Z"/><path class="cls-1" d="M161.5,67.68v-6c0-1.64-.66-2.45-2-2.45s-2.15.8-2.15,2.41v6.08H155V57.14h2.41v1a3.46,3.46,0,0,1,2.79-1.23,3.66,3.66,0,0,1,2.69,1,4.47,4.47,0,0,1,1,3.28v6.47Z"/><path class="cls-1" d="M168.28,55.28a1.38,1.38,0,0,1-1,.42,1.43,1.43,0,0,1-1-.42,1.39,1.39,0,0,1-.42-1,1.35,1.35,0,0,1,.42-1,1.43,1.43,0,0,1,1-.42,1.42,1.42,0,0,1,1.42,1.43A1.42,1.42,0,0,1,168.28,55.28Zm-2.23,12.4V57.14h2.41V67.68Z"/><path class="cls-1" d="M170,67.68V65.74l5.53-6.45h-5.12V57.14h8.11V59L173,65.54h5.49v2.14Z"/><path class="cls-1" d="M186.43,67.68v-.85a3.74,3.74,0,0,1-2.81,1.1,4.06,4.06,0,0,1-2.75-.92,3.22,3.22,0,0,1-1.06-2.59,3,3,0,0,1,1.2-2.6,4.81,4.81,0,0,1,2.92-.88,5.08,5.08,0,0,1,2.5.55v-.55a1.88,1.88,0,0,0-.51-1.47,2.31,2.31,0,0,0-1.56-.45,5.36,5.36,0,0,0-3.13,1l-.74-2a7.18,7.18,0,0,1,4.12-1.15,7,7,0,0,1,1.45.13,4.4,4.4,0,0,1,1.3.53,2.5,2.5,0,0,1,1,1.23,5.24,5.24,0,0,1,.38,2.11v6.78Zm-2.36-1.88a3.13,3.13,0,0,0,2.36-1V63.43a4.85,4.85,0,0,0-2.11-.43,3.15,3.15,0,0,0-1.57.35,1.16,1.16,0,0,0-.59,1.07,1.18,1.18,0,0,0,.49,1A2.33,2.33,0,0,0,184.07,65.8Z"/><path class="cls-1" d="M194,67.93c-1.63,0-2.45-.9-2.45-2.7v-6h-1.57V57.14h1.57V54l2.41-1.16v4.35h2.43v2.11h-2.43v5.5c0,.68.3,1,.89,1a3.46,3.46,0,0,0,1.65-.47l-.29,2.16A4.69,4.69,0,0,1,194,67.93Z"/><path class="cls-1" d="M200.13,55.28a1.35,1.35,0,0,1-1,.42,1.42,1.42,0,0,1-1-.42,1.39,1.39,0,0,1-.42-1,1.35,1.35,0,0,1,.42-1,1.42,1.42,0,0,1,1-.42,1.43,1.43,0,0,1,1.43,1.43A1.39,1.39,0,0,1,200.13,55.28Zm-2.22,12.4V57.14h2.41V67.68Z"/><path class="cls-1" d="M206.88,67.93a4.45,4.45,0,0,1-3.52-1.47,5.84,5.84,0,0,1-1.3-4,5.88,5.88,0,0,1,1.3-4.05,5,5,0,0,1,7.06,0,5.89,5.89,0,0,1,1.31,4.05,5.84,5.84,0,0,1-1.3,4A4.5,4.5,0,0,1,206.88,67.93Zm0-2.31a2.13,2.13,0,0,0,1.79-.85,3.77,3.77,0,0,0,.65-2.35,3.9,3.9,0,0,0-.65-2.37,2.24,2.24,0,0,0-3.54,0,3.84,3.84,0,0,0-.66,2.36,3.8,3.8,0,0,0,.65,2.34A2.09,2.09,0,0,0,206.88,65.62Z"/><path class="cls-1" d="M220,67.68v-6c0-1.64-.65-2.45-2-2.45s-2.14.8-2.14,2.41v6.08h-2.41V57.14h2.41v1a3.44,3.44,0,0,1,2.78-1.23,3.64,3.64,0,0,1,2.69,1,4.42,4.42,0,0,1,1,3.28v6.47Z"/><path class="cls-1" d="M23.29,24c-.39.68-.54,1-.54,1a1.38,1.38,0,0,1-1.69.66l-1.14-.43a1.2,1.2,0,0,0-1.56.7l-.87,2.27a1.22,1.22,0,0,0,.71,1.57l1.13.43a1.42,1.42,0,0,1,.85,1.62l-.5,2.48a1.41,1.41,0,0,1-1.4,1.16l-1.22,0a1.23,1.23,0,0,0-1.26,1.17L15.72,39a1.23,1.23,0,0,0,1.18,1.26l1.22,0a1.41,1.41,0,0,1,1.33,1.25l.34,2.51a1.41,1.41,0,0,1-.95,1.55L17.66,46a1.22,1.22,0,0,0-.81,1.52L17.91,51l6.56-2a26.54,26.54,0,0,1,21-36.38L44,5.86l-3.56.83a1.22,1.22,0,0,0-.91,1.46l.28,1.2A1.41,1.41,0,0,1,38.9,11l-2.34,1a1.42,1.42,0,0,1-1.75-.52l-.64-1.05A1.22,1.22,0,0,0,32.49,10l-2.06,1.28A1.21,1.21,0,0,0,30,12.91l.64,1a1.41,1.41,0,0,1-.3,1.8l-1.9,1.67a1.42,1.42,0,0,1-1.82.07l-.95-.77A1.22,1.22,0,0,0,24,16.9l-1.53,1.88a1.21,1.21,0,0,0,.17,1.71l.95.77a1.39,1.39,0,0,1,.27,1.79S23.68,23.31,23.29,24Z"/><path class="cls-1" d="M48.61,67.88c.78,0,1.12,0,1.12,0A1.38,1.38,0,0,1,51.14,69l.19,1.2a1.22,1.22,0,0,0,1.39,1l2.4-.39a1.22,1.22,0,0,0,1-1.39l-.19-1.21a1.41,1.41,0,0,1,1-1.54l2.4-.81A1.42,1.42,0,0,1,61,66.5l.57,1.07a1.22,1.22,0,0,0,1.65.5l2.14-1.14a1.21,1.21,0,0,0,.5-1.64L65.3,64.2a1.42,1.42,0,0,1,.42-1.77l2-1.55a1.41,1.41,0,0,1,1.82,0l.91.84a1.22,1.22,0,0,0,1.72-.06L74.66,59l-5-4.66a26.54,26.54,0,0,1-42,0l-5,4.67,2.49,2.67a1.22,1.22,0,0,0,1.72.06l.91-.84a1.41,1.41,0,0,1,1.82,0l2,1.54a1.44,1.44,0,0,1,.42,1.78l-.58,1.08a1.22,1.22,0,0,0,.5,1.65L34,68.07a1.22,1.22,0,0,0,1.65-.5l.57-1.07a1.42,1.42,0,0,1,1.71-.64l2.4.81a1.41,1.41,0,0,1,1,1.54l-.19,1.2a1.22,1.22,0,0,0,1,1.4l2.39.39a1.23,1.23,0,0,0,1.4-1l.19-1.2a1.38,1.38,0,0,1,1.41-1.13S47.82,67.88,48.61,67.88Z"/><path class="cls-1" d="M74,24c-.39-.68-.57-1-.57-1a1.37,1.37,0,0,1,.27-1.78l.95-.77a1.24,1.24,0,0,0,.17-1.72L73.24,16.9a1.22,1.22,0,0,0-1.72-.17l-.94.76a1.41,1.41,0,0,1-1.82-.07l-1.9-1.67a1.43,1.43,0,0,1-.31-1.8l.65-1a1.23,1.23,0,0,0-.39-1.68L64.75,10a1.22,1.22,0,0,0-1.68.39l-.65,1a1.41,1.41,0,0,1-1.74.52l-2.34-1a1.41,1.41,0,0,1-.87-1.6l.28-1.2a1.22,1.22,0,0,0-.92-1.46l-3.55-.82-1.53,6.69A26.55,26.55,0,0,1,72.76,49l6.56,2,1.06-3.49a1.21,1.21,0,0,0-.8-1.52l-1.19-.36a1.42,1.42,0,0,1-1-1.55l.34-2.51a1.43,1.43,0,0,1,1.33-1.25l1.23,0A1.22,1.22,0,0,0,81.51,39l-.08-2.43a1.23,1.23,0,0,0-1.26-1.18l-1.22,0a1.41,1.41,0,0,1-1.4-1.16l-.5-2.48a1.41,1.41,0,0,1,.85-1.61L79,29.74a1.22,1.22,0,0,0,.7-1.57l-.86-2.27a1.22,1.22,0,0,0-1.57-.7l-1.14.43A1.37,1.37,0,0,1,74.49,25S74.35,24.69,74,24Z"/><path class="cls-1" d="M10.61,23.44l0,0A.1.1,0,0,1,10.61,23.44Z"/><path class="cls-1" d="M21.07,9.66l.09.11a8.81,8.81,0,0,1,2.47-1.24c6.61-1.86,6.28-4.15,9.08-5.5l-.08-.14a4.66,4.66,0,0,1-2.33.69C22.53,3.68,23.12,8.2,21.07,9.66Z"/><path class="cls-1" d="M13.36,18.28l.14.09a6.61,6.61,0,0,1,3.34-2.15c6.16-1.82,8.31-5.9,10-7.06l-.06-.09c-2.27,1.62-5,0-9.59,4.9,0,0-.16-.14-.16-.14,3.74-4.52,3.84-7.58,5.57-9.26l-.09-.08C11.57,11,16.36,14.55,13.36,18.28Z"/><path class="cls-1" d="M13.81,10.73C3.53,20.92,9.93,23.52,8.32,28.59l.1,0a6.6,6.6,0,0,1,3.37-3.11c4.35-2,5.72-7.08,7.46-8.63l-.08-.08c-2.13,2.31-5.64,1-8.49,6.73,0,0-.19-.09-.19-.1,2.31-5,1.23-9.48,3.42-12.58A.49.49,0,0,0,13.81,10.73Z"/><path class="cls-1" d="M6.34,42.11h.15a6.37,6.37,0,0,1,2.23-5.25c4.89-4.52,4-8.54,6.06-11.64l-.16-.09c-1.55,2.65-7.24,5.55-7.47,9.62a.83.83,0,0,1-.22,0c.83-5.84-2.25-9.73-.57-13.42l-.15-.09C-.31,34.63,5.11,34.44,6.34,42.11Z"/><path class="cls-1" d="M8.85,54.86,9,54.8c-1.34-3,.91-7.17,1-7.37,3-5.75,2-11,2.65-12.77l-.14,0c-1.58,3.94-6,6.09-5.29,12.72H7c-.69-4.11-5.36-8.06-5.21-12.56H1.74C-1.17,50.74,7.12,50.64,8.85,54.86Z"/><path class="cls-1" d="M15.49,66.67l.11-.09a8.9,8.9,0,0,1-1.88-7.29c1.38-8-1.2-9.39-1.25-13h-.14c-.12,4-4.24,8.56-.5,14.2l-.18.11c-4.12-6-7.4-4.55-9.33-10.54h0a.42.42,0,0,0-.17,0C5.05,67.66,12.85,62.35,15.49,66.67Z"/><path class="cls-1" d="M31.6,74.32l0-.16c-5.43,1.09-8.21,0-9.2-5-1.38-7-6.15-9.73-6.71-12.53h0a.33.33,0,0,0-.14,0h0c1,5-1.39,7.91,4.59,13.84l-.16.14c-5.75-4.56-9.7-2.88-12-6.05a.93.93,0,0,0-.1.1C15,76.56,22.61,77.21,31.6,74.32Z"/><path class="cls-1" d="M18.17,76.36l0-.06c7.31,4.26,15-1.68,24.22-1.89,2.32-.06,9.27.36,15.64,7.77l-1.69.49c-2.11-3.66-5.36-6.31-8.31-7-8.42-2.11-8.58,5.74-17.94,5.87C23.19,81.59,18.44,76.64,18.17,76.36Z"/><path class="cls-1" d="M86.52,23.44l0,0Z"/><path class="cls-1" d="M86.52,23.44l0,0Z"/><path class="cls-1" d="M10.61,23.44l0,0A.1.1,0,0,1,10.61,23.44Z"/><path class="cls-1" d="M86.52,23.44l0,0Z"/><path class="cls-1" d="M76.07,9.66l-.1.11A8.52,8.52,0,0,0,73.5,8.53C66.89,6.67,67.22,4.38,64.42,3l.09-.14a4.66,4.66,0,0,0,2.33.69C74.6,3.68,74,8.2,76.07,9.66Z"/><path class="cls-1" d="M83.78,18.28l-.14.09a6.62,6.62,0,0,0-3.35-2.15c-6.16-1.82-8.3-5.9-10-7.06l.06-.09c2.28,1.62,5,0,9.59,4.9,0,0,.16-.14.16-.14-3.74-4.52-3.83-7.58-5.56-9.26l.09-.08C85.56,11,80.78,14.55,83.78,18.28Z"/><path class="cls-1" d="M83.33,10.73c10.28,10.19,3.88,12.79,5.49,17.86l-.1,0a6.6,6.6,0,0,0-3.38-3.11c-4.35-2-5.72-7.08-7.46-8.63l.09-.08c2.12,2.31,5.64,1,8.48,6.73,0,0,.2-.09.19-.1-2.3-5-1.22-9.48-3.42-12.58A.81.81,0,0,1,83.33,10.73Z"/><path class="cls-1" d="M90.79,42.11h-.15a6.33,6.33,0,0,0-2.23-5.25c-4.88-4.52-4-8.54-6-11.64l.15-.09c1.55,2.65,7.24,5.55,7.48,9.62a.71.71,0,0,0,.21,0c-.83-5.84,2.26-9.73.57-13.42l.15-.09C97.44,34.63,92,34.44,90.79,42.11Z"/><path class="cls-1" d="M88.28,54.86l-.16-.06c1.35-3-.91-7.17-1-7.37-3-5.75-2-11-2.65-12.77l.14,0c1.58,3.94,6,6.09,5.3,12.72h.21c.69-4.11,5.36-8.06,5.21-12.56h.08C98.3,50.74,90,50.64,88.28,54.86Z"/><path class="cls-1" d="M81.64,66.67l-.11-.09a8.81,8.81,0,0,0,1.88-7.29c-1.38-8,1.2-9.39,1.26-13h.13c.12,4,4.24,8.56.5,14.2l.18.11c4.13-6,7.4-4.55,9.33-10.54h0a.38.38,0,0,1,.17,0C92.08,67.66,84.28,62.35,81.64,66.67Z"/><path class="cls-1" d="M65.54,74.32l0-.16c5.44,1.09,8.21,0,9.2-5,1.39-7,6.16-9.73,6.72-12.53h0a.24.24,0,0,1,.13,0h0c-1,5,1.39,7.91-4.59,13.84l.16.14c5.76-4.56,9.71-2.88,12-6.05,0,0,.09.07.1.1C82.16,76.56,74.52,77.21,65.54,74.32Z"/><path class="cls-1" d="M79,76.36l0-.06c-7.31,4.26-15-1.68-24.21-1.89-2.33-.06-9.27.36-15.65,7.77l1.69.49c2.11-3.66,5.36-6.31,8.31-7,8.42-2.11,8.59,5.74,17.94,5.87C74,81.59,78.7,76.64,79,76.36Z"/><path class="cls-1" d="M10.61,23.44l0,0A.1.1,0,0,1,10.61,23.44Z"/><path class="cls-1" d="M10.61,23.44l0,0A.1.1,0,0,1,10.61,23.44Z"/><path class="cls-1" d="M86.52,23.44l0,0Z"/><path class="cls-1" d="M60,23.66h-.13a9.36,9.36,0,0,0-8.34,5.87,16.91,16.91,0,0,0-1,6.62,16.88,16.88,0,0,0,1,6.62C53.11,46.44,56.4,49,59.82,49H60c3.41,0,6.7-2.51,8.33-6.18a17.06,17.06,0,0,0,1-6.62,17.1,17.1,0,0,0-1-6.62A9.35,9.35,0,0,0,60,23.66ZM65.21,36.3c0,2.19-.06,4.08-.06,4.08-.14,1.8-.17,3.6-1,4.82a4.78,4.78,0,0,1-4,2.12l-.06,0h-.19l-.06,0a4.78,4.78,0,0,1-4-2.12c-.83-1.22-.86-3-1-4.82,0,0-.05-1.86-.06-4v-.1c0-2.19.06-4.08.06-4.08.14-1.8.16-3.59,1-4.82a4.78,4.78,0,0,1,4-2.12l.06,0h.19l.06,0a4.78,4.78,0,0,1,4,2.12c.83,1.23.86,3,1,4.82,0,0,0,1.86.06,4Z"/><path class="cls-1" d="M62.51,50a8,8,0,0,1-1.92,2.81,4.68,4.68,0,0,1-2.5.84l-8.41.41H47.82a1.54,1.54,0,0,1-1.48-1.39V23.2a1.54,1.54,0,0,1,1.48-1.39h1.86V20.09H38.43v1.72h1.86a1.55,1.55,0,0,1,1.49,1.39V52.66a1.55,1.55,0,0,1-1.49,1.39H38.43v1.72H49.68l12.18,0,1.49-5.44v-.19Z"/><path class="cls-1" d="M36.08,26.9a1.3,1.3,0,0,1,1.24-1.16h1.55V24.31H29.49v1.43H31s1.18.07,1.24,1.16V45.74A1.28,1.28,0,0,1,31,46.9H29.49v1.44h9.38V46.9H37.32a1.29,1.29,0,0,1-1.24-1.16Z"/><rect class="cls-1" x="237.72" y="12.01" width="1.24" height="59.8"/><path class="cls-1" d="M254.19,55.14V28.67h4.54V55.14Z"/><path class="cls-1" d="M265.35,55.14V28.67h4.53V50.79h12.86v4.35Z"/><path class="cls-1" d="M296.8,55.59a12,12,0,0,1-4.46-.79A9.25,9.25,0,0,1,289,52.66a12.13,12.13,0,0,1-2.19-3.12,14.09,14.09,0,0,1-1.27-3.68,20.72,20.72,0,0,1,0-7.9,14,14,0,0,1,1.27-3.69A12.49,12.49,0,0,1,289,31.15,9.38,9.38,0,0,1,292.34,29a12.17,12.17,0,0,1,4.46-.79,11.65,11.65,0,0,1,5.38,1.19,9.25,9.25,0,0,1,3.63,3.22A15.56,15.56,0,0,1,307.76,37a19.19,19.19,0,0,1,0,9.83,15.75,15.75,0,0,1-1.95,4.37,9.23,9.23,0,0,1-3.63,3.21A11.65,11.65,0,0,1,296.8,55.59Zm0-4.35a5.94,5.94,0,0,0,3.21-.87,6.08,6.08,0,0,0,2.17-2.28,12,12,0,0,0,1.16-3,13.71,13.71,0,0,0,.38-3.19,14.16,14.16,0,0,0-.38-3.31,11.54,11.54,0,0,0-1.16-3A5.83,5.83,0,0,0,300,33.4a6.19,6.19,0,0,0-3.23-.83,5.7,5.7,0,0,0-4.05,1.53,8.21,8.21,0,0,0-2.25,3.53,14.52,14.52,0,0,0-.62,4.28,14.16,14.16,0,0,0,.38,3.28,11.51,11.51,0,0,0,1.15,3,5.93,5.93,0,0,0,2.16,2.23A6.07,6.07,0,0,0,296.8,51.24Z"/><path class="cls-1" d="M322.35,55.59a10.64,10.64,0,0,1-6.25-1.83,9.83,9.83,0,0,1-3.73-5l4.2-1.55a7.28,7.28,0,0,0,2.38,3,5.94,5.94,0,0,0,3.55,1.11,5.29,5.29,0,0,0,3.31-.94A3.24,3.24,0,0,0,327,47.61a2.75,2.75,0,0,0-.34-1.34,4.49,4.49,0,0,0-.78-1,5.13,5.13,0,0,0-1.3-.83q-.87-.42-1.47-.66c-.41-.16-1-.37-1.78-.62-1-.36-1.78-.63-2.32-.84a14.88,14.88,0,0,1-2.08-1A7.36,7.36,0,0,1,315,39.86a6.85,6.85,0,0,1-1.68-4.53,6.46,6.46,0,0,1,2.34-5.07,9.34,9.34,0,0,1,6.35-2,9.21,9.21,0,0,1,5.52,1.57,7.64,7.64,0,0,1,2.95,4.1l-4.08,1.36q-1.21-2.72-4.69-2.72a4.61,4.61,0,0,0-2.78.74,2.44,2.44,0,0,0-1,2.1,2.19,2.19,0,0,0,.77,1.62,5.42,5.42,0,0,0,1.67,1.08c.59.24,1.46.55,2.62.92l1.72.63c.39.14.94.37,1.65.7a10.85,10.85,0,0,1,3,2,5.65,5.65,0,0,1,1.19,1.42,8.28,8.28,0,0,1,.72,1.74,7.54,7.54,0,0,1,.3,2.17A7.09,7.09,0,0,1,329,53.45,10.19,10.19,0,0,1,322.35,55.59Z"/><path class="cls-1" d="M347.3,33V55.14h-4.53V33h-7.53V28.67h19.58V33Z"/><path class="cls-1" d="M373.58,55.14l-2.08-5.79H361L359,55.14h-4.81L364,28.67h4.5l9.83,26.47Zm-3.52-9.87-2.91-7.94a20.17,20.17,0,0,1-.87-2.68c-.2.73-.49,1.62-.87,2.68l-3,7.94Z"/><path class="cls-1" d="M389.72,33V55.14h-4.54V33h-7.52V28.67h19.58V33Z"/></g></svg>